Coordinates
version=1
nRows=17
nColumns=40
inDegrees=yes

Units are S.I. units (second, meters, Newtons, ...)
Angles are in degrees.

endheader
time	pelvis_tilt	pelvis_list	pelvis_rotation	pelvis_tx	pelvis_ty	pelvis_tz	hip_flexion_r	hip_adduction_r	hip_rotation_r	knee_angle_r	knee_angle_r_beta	ankle_angle_r	subtalar_angle_r	mtp_angle_r	hip_flexion_l	hip_adduction_l	hip_rotation_l	knee_angle_l	knee_angle_l_beta	ankle_angle_l	subtalar_angle_l	mtp_angle_l	lumbar_extension	lumbar_bending	lumbar_rotation	arm_flex_r	arm_add_r	arm_rot_r	elbow_flex_r	pro_sup_r	wrist_flex_r	wrist_dev_r	arm_flex_l	arm_add_l	arm_rot_l	elbow_flex_l	pro_sup_l	wrist_flex_l	wrist_dev_l
     10.94000000	     -3.80496939	     -2.78811728	     -1.90841845	      1.07350888	      0.93121141	      0.43572877	     25.33486045	     -9.01055776	     -7.13466241	     70.72758783	     70.72758783	      2.52388482	    -15.91325709	      0.38600731	     16.01324815	     -3.70919090	     -8.90038135	     22.84065780	     22.84065780	     13.58814042	     -5.98748175	     -1.77493117	     -8.16110109	      5.08741979	      0.80182276	      6.35514923	    -13.59270332	     -6.67539113	     77.65374133	     43.85311706	      0.00000000	      0.00000000	      6.18399061	    -11.93551088	      8.73746927	     33.75260777	     44.02445686	      0.00000000	      0.00000000
     10.95164286	     -3.63529780	     -2.73548600	     -2.11753998	      1.07255958	      0.93231267	      0.43521324	     26.69201271	     -9.04231173	     -7.16253955	     70.38882458	     70.38882458	      2.46198498	    -15.58011559	      0.01472986	     14.65923900	     -3.57355526	     -9.28915635	     21.90371213	     21.90371213	     13.88853702	     -5.50025730	     -1.95939566	     -8.32384724	      5.06200731	      0.92648125	      4.62216606	    -13.44810127	     -6.47350674	     72.98549099	     44.05930411	      0.00000000	      0.00000000	      8.45141100	    -12.31807671	      8.78999959	     33.45358434	     44.13418257	      0.00000000	      0.00000000
     10.96328571	     -3.45380295	     -2.68094774	     -2.32380939	      1.07165363	      0.93327476	      0.43475321	     27.94362088	     -9.03646807	     -7.19128460	     69.88896861	     69.88896861	      2.42706212	    -15.26860703	     -0.13777130	     13.33303767	     -3.44682853	     -9.73562221	     21.03384418	     21.03384418	     14.14684554	     -4.89428317	     -2.32104213	     -8.50000668	      5.01692032	      1.02510027	      3.19199479	    -13.26588538	     -6.28743477	     67.90296574	     44.27493630	      0.00000000	      0.00000000	     10.47196944	    -12.80388538	      8.76504695	     33.69656087	     44.24464463	      0.00000000	      0.00000000
     10.97492857	     -3.25835012	     -2.57438816	     -2.55690686	      1.07078134	      0.93415171	      0.43435221	     29.08645239	     -9.04066836	     -7.17078696	     69.17020667	     69.17020667	      2.41054968	    -14.94058698	     -0.09036121	     11.92662006	     -3.22313803	    -10.14327168	     20.01834136	     20.01834136	     14.43374213	     -4.37451703	     -2.39205118	     -8.78608502	      4.90709588	      1.55209309	      1.06429104	    -13.44730350	     -5.95567524	     64.55047003	     44.38590947	      0.00000000	      0.00000000	     12.48753274	    -13.13800982	      8.57555308	     34.56558372	     44.32233569	      0.00000000	      0.00000000
     10.98657143	     -3.10544940	     -2.51599690	     -2.74740101	      1.06991151	      0.93482924	      0.43402105	     30.13957155	     -8.98582802	     -7.22061802	     68.15084691	     68.15084691	      2.40947957	    -14.61535449	      0.16933612	     10.65505069	     -3.06326854	    -10.53329281	     19.12792519	     19.12792519	     14.55447101	     -3.86163514	     -2.99561055	     -8.84293193	      4.86830659	      1.13378988	      1.12317889	    -12.75062766	     -6.01804066	     56.93643699	     44.70328218	      0.00000000	      0.00000000	     14.20339286	    -13.78939200	      8.53709727	     34.51001690	     44.43151563	      0.00000000	      0.00000000
     10.99821429	     -2.96266639	     -2.42245086	     -2.95507499	      1.06903866	      0.93533057	      0.43377815	     31.08054479	     -8.93951697	     -7.25863378	     66.79503669	     66.79503669	      2.43205625	    -14.25901276	      0.44184046	      9.35421909	     -2.82746020	    -10.83989774	     18.13760468	     18.13760468	     14.66349511	     -3.50284739	     -3.39381627	     -8.99583603	      4.79634589	      1.15620863	      0.33839194	    -12.48668206	     -5.92215199	     51.39370248	     44.93345331	      0.00000000	      0.00000000	     15.80607731	    -14.28360025	      8.14262087	     35.37434750	     44.57867484	      0.00000000	      0.00000000
     11.00985714	     -2.79740520	     -2.33793540	     -3.17130752	      1.06822594	      0.93571712	      0.43365062	     31.84473964	     -8.82166187	     -7.26728246	     65.03708973	     65.03708973	      2.37773987	    -14.03210929	      0.67711585	      7.98483775	     -2.58402199	    -11.14215601	     17.07014052	     17.07014052	     14.91089018	     -3.04195312	     -3.43457727	     -9.24624441	      4.78389702	      1.63281558	     -1.56832254	    -12.58698642	     -5.73531483	     48.68865425	     45.02329389	      0.00000000	      0.00000000	     17.50899042	    -14.51986620	      7.83085090	     36.47106051	     44.66047971	      0.00000000	      0.00000000
     11.02150000	     -2.72500955	     -2.22719233	     -3.36153021	      1.06732351	      0.93573595	      0.43371052	     32.57811254	     -8.72181367	     -7.32758494	     62.91383380	     62.91383380	      2.31978838	    -13.78308765	      0.71352063	      6.80269663	     -2.32888633	    -11.37859107	     16.10754386	     16.10754386	     14.85716108	     -2.81528998	     -4.24316132	     -9.28498533	      4.67850138	      1.17072434	     -1.07404572	    -11.94071569	     -6.25053138	     40.92861979	     45.37631980	      0.00000000	      0.00000000	     18.63692178	    -15.26869299	      7.12130372	     37.51300872	     44.83880177	      0.00000000	      0.00000000
     11.03314286	     -2.65425500	     -2.11633089	     -3.52976571	      1.06644824	      0.93559538	      0.43384782	     33.12064991	     -8.57292928	     -7.39445146	     60.32620915	     60.32620915	      2.15244139	    -13.64378757	      0.48204193	      5.57744665	     -2.04409454	    -11.51046663	     15.04918804	     15.04918804	     14.84343138	     -2.61348018	     -4.86743826	     -9.40295361	      4.62239810	      1.04579734	     -1.63798580	    -11.57741934	     -6.98952915	     36.02958935	     45.63794110	      0.00000000	      0.00000000	     19.56512959	    -15.79246694	      5.93215630	     39.46458762	     45.08753073	      0.00000000	      0.00000000
     11.04478571	     -2.63092838	     -2.03725810	     -3.73486575	      1.06561910	      0.93517925	      0.43418191	     33.53769897	     -8.35271818	     -7.49758145	     57.34411660	     57.34411660	      2.00888034	    -13.42044560	      0.07900992	      4.42385296	     -1.82065015	    -11.75598084	     14.05791626	     14.05791626	     14.90898605	     -2.34131957	     -5.39023637	     -9.47814791	      4.61357580	      1.12170356	     -2.64221741	    -11.47146212	     -7.68194283	     32.02858109	     45.86245333	      0.00000000	      0.00000000	     20.61322985	    -16.22299208	      4.98038700	     41.25356871	     45.28927979	      0.00000000	      0.00000000
     11.05642857	     -2.63033452	     -1.99073594	     -3.88376319	      1.06485150	      0.93459878	      0.43456138	     33.78408649	     -8.08614745	     -7.69578750	     53.98523641	     53.98523641	      2.04390807	    -13.06679997	      0.36671429	      3.36689457	     -1.64876500	    -11.94531891	     13.23241894	     13.23241894	     15.19735867	     -1.99903906	     -5.48325019	     -9.52470784	      4.71204753	      1.38900811	     -4.55617699	    -11.60418814	     -7.73713849	     30.48235701	     45.92030269	      0.00000000	      0.00000000	     21.90582751	    -16.48790026	      4.61631463	     42.48759126	     45.36045011	      0.00000000	      0.00000000
     11.06807143	     -2.62846865	     -1.86024874	     -4.05047124	      1.06416901	      0.93377181	      0.43517841	     33.81278099	     -7.82039587	     -7.83544939	     50.20269837	     50.20269837	      1.69971329	    -12.83930219	     -0.96771925	      2.20387514	     -1.36822790	    -12.11853382	     12.16049883	     12.16049883	     15.05678096	     -1.74755959	     -6.53203409	     -9.60183833	      4.58429842	      1.09550657	     -4.78449574	    -11.35957170	     -9.01215651	     25.44519052	     46.27126561	      0.00000000	      0.00000000	     22.07907861	    -17.21756593	      3.15033090	     45.86983980	     45.60456523	      0.00000000	      0.00000000
     11.07971429	     -2.66766126	     -1.77325158	     -4.19589395	      1.06363498	      0.93274005	      0.43587422	     33.67320508	     -7.48389881	     -8.08119558	     46.11921781	     46.11921781	      1.51883407	    -12.33944268	     -1.67810181	      1.14508943	     -1.15149848	    -12.25515631	     11.25550776	     11.25550776	     15.16855672	     -1.49244996	     -7.03332954	     -9.61949691	      4.57469187	      1.12507635	     -6.11352705	    -11.32537351	    -10.51198340	     23.17345131	     46.54315488	      0.00000000	      0.00000000	     22.61615849	    -17.58224590	      1.81806932	     48.43876091	     45.83817746	      0.00000000	      0.00000000
     11.09135714	     -2.81399931	     -1.74750399	     -4.26931652	      1.06316735	      0.93136582	      0.43666120	     33.45665991	     -7.05924237	     -8.43948360	     41.86456355	     41.86456355	      1.74738200	    -11.44047803	     -1.16837408	      0.36814611	     -1.06253785	    -12.32544256	     10.69764903	     10.69764903	     15.55357380	     -1.22632380	     -7.18162279	     -9.43360319	      4.67447711	      1.21333082	     -7.94962886	    -11.47387778	    -10.61906543	     22.23167091	     46.58265980	      0.00000000	      0.00000000	     23.66319627	    -17.93039755	      1.49701962	     49.53966259	     45.89410923	      0.00000000	      0.00000000
     11.10300000	     -2.68840850	     -1.58906039	     -4.43489039	      1.06306730	      0.93012532	      0.43765132	     32.83255416	     -6.72578025	     -8.74950618	     37.57897686	     37.57897686	      1.97189458	    -10.14773051	     -0.79723827	     -0.89417456	     -0.78109379	    -12.66103366	      9.81602224	      9.81602224	     15.83417731	     -0.63320171	     -7.49464315	     -9.65563668	      4.51030843	      1.83672938	     -9.87796368	    -11.59961984	    -10.98733375	     20.88862101	     46.67890225	      0.00000000	      0.00000000	     24.45052946	    -17.95706063	      0.82783228	     52.30727509	     46.00688374	      0.00000000	      0.00000000
     11.11464286	     -2.80002926	     -1.57923432	     -4.47894677	      1.06305310	      0.92839757	      0.43875215	     32.23385401	     -6.19227151	     -9.19781964	     33.20305546	     33.20305546	      2.10365031	     -8.82593161	     -0.09068577	     -1.66088048	     -0.74497410	    -12.69771918	      9.42184383	      9.42184383	     16.25988519	     -0.42946532	     -7.74762118	     -9.48054330	      4.58724694	      1.82274686	    -11.56619266	    -11.75654119	    -11.20213863	     20.12497506	     46.72656502	      0.00000000	      0.00000000	     25.09061257	    -18.32838826	      0.37258952	     53.89869015	     46.07655304	      0.00000000	      0.00000000
     11.12628571	     -2.76027028	     -1.44736365	     -4.57324371	      1.06338453	      0.92655848	      0.44002604	     31.53465708	     -5.81342343	     -9.66875280	     29.32302978	     29.32302978	      2.61467178	     -6.91823622	      1.46757200	     -2.66855070	     -0.57085515	    -12.99045742	      8.90721048	      8.90721048	     16.64937062	      0.11053019	     -8.18862290	     -9.58654283	      4.45261308	      1.35482950	    -12.83904138	    -11.85322127	    -12.52166899	     19.50394273	     46.93586631	      0.00000000	      0.00000000	     24.07343661	    -19.10966213	     -1.56521212	     59.27473102	     46.34476033	      0.00000000	      0.00000000
